<svg xmlns="http://www.w3.org/2000/svg" viewBox="0 0 60 60"><defs><style>.cls-1{fill:#0b4b7f;}.cls-2{fill:none;stroke:#fff;stroke-miterlimit:10;stroke-width:2px;}</style></defs><title>3d</title><g id="Layer_1" data-name="Layer 1"><rect class="cls-1" width="60" height="60"/></g><g id="Layer_3" data-name="Layer 3"><path class="cls-2" d="M29.81,28.43,52.44,14.6a.12.12,0,0,0,0-.22L29.81,6.17,9.06,14.34a.18.18,0,0,0,0,.31Z"/><path class="cls-2" d="M29.81,28.43V55.8a.09.09,0,0,0,.14.07L52.66,41.18V14.84a.21.21,0,0,0-.32-.18Z"/><path class="cls-2" d="M9,14.43V41.57L29.49,56.13a.17.17,0,0,0,.27-.13l.32-27.78L9.16,14.35A.09.09,0,0,0,9,14.43Z"/></g></svg>