<svg xmlns="http://www.w3.org/2000/svg" viewBox="0 0 60 60"><defs><style>.cls-1{fill:#0b4b7f;}.cls-2{fill:none;stroke:#fff;stroke-miterlimit:10;stroke-width:2px;}</style></defs><title>hman</title><g id="Layer_1" data-name="Layer 1"><rect class="cls-1" width="60" height="60"/></g><g id="Layer_6" data-name="Layer 6"><path class="cls-2" d="M17.44,43.38a22.57,22.57,0,0,0,.47-3.23,10.23,10.23,0,0,0-1-3.75,32.17,32.17,0,0,0-1.51-3.88A19.52,19.52,0,0,0,13,29.71c-3.86-4.53-3.38-11-.38-15.89,1.6-2.63,3.79-4,6.17-5.83s4.67-2.25,7.54-2.81a34.16,34.16,0,0,1,8.07-.47A9.72,9.72,0,0,1,38.24,6a40.57,40.57,0,0,1,4.32,2C44.13,9,45,10.55,46.12,12a16.3,16.3,0,0,1,2.39,3.54c1.35,3.34.32,6.29-.7,9.5-.71,2.25,1.15,4,2.25,6,.52.91,1.34,1.92.55,2.81-.94,1.07-2,.29-2.34,1.86-.1.48.21,1.3,0,1.75s-.93.51-1,.85c-.15.5.58.65.55,1.19,0,.78-1,1-1.28,1.61-.73,1.94.59,4.44-2,5.38s-5.63-1.62-8.28,0C34.5,46.35,34,49.81,33.41,51A32.84,32.84,0,0,0,31,57"/><path class="cls-2" d="M30.77,21.65c1.72-.29,3.46.31,5.2.46a7.9,7.9,0,0,0,4.68-1,5.54,5.54,0,0,0,2.71-3.83,6,6,0,0,0-2-5.14,11.85,11.85,0,0,0-5.09-2.55C30.45,8.09,23.78,9,19.38,13.07,17.28,15,15.73,17.73,16,20.56c.25,2.65,2.9,5.81,5.78,5.46C25.25,25.61,27.4,22.22,30.77,21.65Z"/><path class="cls-2" d="M20.59,30.75a5.65,5.65,0,0,0,3.25-5.48"/><path class="cls-2" d="M36.48,21.75a7.93,7.93,0,0,0,.33-3.66,2.72,2.72,0,0,0-2.56-2.25"/><path class="cls-2" d="M17.88,14.27a7,7,0,0,1,3.22.32,2.56,2.56,0,0,1,1.66,2.54"/></g></svg>