<svg xmlns="http://www.w3.org/2000/svg" viewBox="0 0 60 60"><defs><style>.cls-1,.cls-3{fill:#0b4b7f;}.cls-2{fill:none;}.cls-2,.cls-3{stroke:#fff;stroke-miterlimit:10;stroke-width:2px;}.cls-4{fill:#fff;}</style></defs><title>interface</title><g id="Layer_1" data-name="Layer 1"><rect class="cls-1" width="60" height="60"/></g><g id="Layer_10" data-name="Layer 10"><circle class="cls-2" cx="26.72" cy="17.73" r="13.03"/><circle class="cls-2" cx="26.72" cy="17.73" r="8.16"/><path class="cls-3" d="M13.42,34.42,24,54.08H43s2.25.5,3-2.33,0-16.67,0-16.67-.17-2.92-4.08-2.08a10.1,10.1,0,0,0-.83,3.58c0,1.75.17-4.33-.83-5.33a3.16,3.16,0,0,0-4.5,0,13,13,0,0,0-.33,3.33c.08,1.67-.25-4.58-.25-4.58s-.58-2.5-2.75-2.42-2.54.83-2.54.83V17.17s-.87-2.5-3-2.58a3.34,3.34,0,0,0-3,1.75l-.08,20.58a1.65,1.65,0,0,1-2.42,1.5l-3-5.08S14.92,30,13.42,34.42Z"/><circle class="cls-4" cx="29.88" cy="33.09" r="1.03"/></g></svg>