<svg xmlns="http://www.w3.org/2000/svg" viewBox="0 0 60 60"><defs><style>.cls-1{fill:#0b4b7f;}.cls-2{fill:none;stroke:#fff;stroke-miterlimit:10;stroke-width:2px;}</style></defs><title>web</title><g id="Layer_1" data-name="Layer 1"><rect class="cls-1" width="60" height="60"/></g><g id="Layer_8" data-name="Layer 8"><circle class="cls-2" cx="30.63" cy="29.41" r="21.25"/><path class="cls-2" d="M9.12,27.8A4.45,4.45,0,0,1,12.37,30c.42.76.68,1.72,1.47,2.08a2.81,2.81,0,0,0,1.22.17l2.66,0a1.93,1.93,0,0,0,.91-.16,1.5,1.5,0,0,0,.63-1.4c0-.54-.17-1.07-.16-1.61,0-1.32,1-2.38,1.6-3.57a5.68,5.68,0,0,0-.05-4.89c-1.08-2.17-3.58-3.7-3.74-6.12.25-.29-.17-1-.53-.89"/><path class="cls-2" d="M28.44,13.89a1.87,1.87,0,0,0-.22,1,.65.65,0,0,0,.41.72A11.55,11.55,0,0,0,31.43,17,.57.57,0,0,0,32,17c.17-.15.11-.41.12-.64,0-.65.73-1,1.34-1.28s1.32-.53,1.48-1.16a1.33,1.33,0,0,0-.35-1.17,3.93,3.93,0,0,0-1-.75c-.88-.51-2.77-1.94-3.68-1.06-.36.34-.22,1.13-.39,1.55A7.79,7.79,0,0,1,28.44,13.89Z"/><path class="cls-2" d="M43.48,25.29l-6.71-.51a10.33,10.33,0,0,1-.52,3A3.49,3.49,0,0,1,34.17,30c-1,.3-2.3.11-2.83,1a2.21,2.21,0,0,0-.23,1A28.27,28.27,0,0,0,32.61,42.1a8.19,8.19,0,0,0,1.66,3.24,3.19,3.19,0,0,0,3.32,1,6.86,6.86,0,0,1,5.21-4.88A3.52,3.52,0,0,0,44,41.1c1.13-.67.78-2.36,1.09-3.63a8.24,8.24,0,0,1,1-2,14.31,14.31,0,0,0,1.77-7.12c0-1.07.1-1.7-.78-2.31S44.54,25.37,43.48,25.29Z"/></g></svg>